<?xml version="1.0" standalone="no"?><!DOCTYPE svg PUBLIC "-//W3C//DTD SVG 1.1//EN" "http://www.w3.org/Graphics/SVG/1.1/DTD/svg11.dtd"><svg t="1713440219424" class="icon" viewBox="0 0 1024 1024" version="1.1" xmlns="http://www.w3.org/2000/svg" p-id="6109" xmlns:xlink="http://www.w3.org/1999/xlink" width="200" height="200"><path d="M713.032094 196.721002h-75.903685V85.391645a9.487961 9.487961 0 0 0-9.48796-9.487961H396.63233a9.487961 9.487961 0 0 0-9.487961 9.487961v111.329357h-75.903684V85.391645a85.486524 85.486524 0 0 1 85.391645-85.391645H627.640449a85.486524 85.486524 0 0 1 85.391645 85.391645z" p-id="6110" fill="#2c2c2c"></path><path d="M20.410975 137.433108h366.816414v75.903684H20.410975zM636.772611 137.433108h366.816414v75.903684H636.772611zM772.426727 1024H252.40347a85.486524 85.486524 0 0 1-85.391645-83.826131L119.666902 283.061442l75.702065-5.455577 47.546542 659.638596v1.363894a9.487961 9.487961 0 0 0 9.487961 9.487961h520.023257a9.487961 9.487961 0 0 0 9.48796-9.487961v-1.363894l0.09488-1.363894 47.439802-658.227262 75.713925 5.408137-47.368643 657.159867a85.486524 85.486524 0 0 1-85.367924 83.778691z" p-id="6111" fill="#2c2c2c"></path><path d="M363.246569 280.333654h75.903684v674.202615h-75.903684zM583.853511 280.333654h75.903684v674.202615h-75.903684z" p-id="6112" fill="#2c2c2c"></path></svg>