<?xml version="1.0" standalone="no"?><!DOCTYPE svg PUBLIC "-//W3C//DTD SVG 1.1//EN" "http://www.w3.org/Graphics/SVG/1.1/DTD/svg11.dtd"><svg t="1708948432641" class="icon" viewBox="0 0 1024 1024" version="1.1" xmlns="http://www.w3.org/2000/svg" p-id="5575" xmlns:xlink="http://www.w3.org/1999/xlink" width="200" height="200"><path d="M235.0208 157.4272l5.3504-4.2752a444.8 444.8 0 0 1 573.8368 5.9776 78.848 78.848 0 0 1 89.3056 38.2464 81.8176 81.8176 0 0 1-113.664 108.544 78.1952 78.1952 0 0 1-34.816-90.3808 363.2 363.2 0 0 0-463.3984-1.28l-4.9024 3.84-2.1376 1.92a39.936 39.936 0 0 1-52.1344-60.4544l1.7152-1.28 0.8448-0.8576zM951.168 404.608a448.6656 448.6656 0 0 1-162.1504 427.2896 467.6864 467.6864 0 0 1-134.1696 74.9824 83.5328 83.5328 0 0 1-74.1376 65.6 78.1824 78.1824 0 0 1-81.1776-52.7744 81.8304 81.8304 0 0 1 129.8944-88.448 384.5632 384.5632 0 0 0 110.8736-61.1072 367.68 367.68 0 0 0 132.8896-348.8768 40.3712 40.3712 0 0 1 12.608-38.656 41.216 41.216 0 0 1 39.936-8.9856 39.0784 39.0784 0 0 1 26.496 29.9136l-1.0624 1.0624zM357.0176 908.8A429.8496 429.8496 0 0 1 84.608 396.0832a79.6928 79.6928 0 0 1-5.3376-100.416 81.6128 81.6128 0 0 1 92.5056-30.7712 78.1952 78.1952 0 0 1 53.1968 79.2704 82.688 82.688 0 0 1-64.0896 74.56 353.3568 353.3568 0 0 0 68.1472 304.6528 346.5216 346.5216 0 0 0 154.4704 109.824 38.464 38.464 0 0 1 28.1984 29.696 41.024 41.024 0 0 1-32.0512 48.2688 42.7264 42.7264 0 0 1-23.936-1.0624l1.28-1.28z" fill="#2c2c2c" p-id="5576"></path><path d="M308.9664 506.5088l123.264 93.7984c4.9536 1.9072 10.4448 1.9072 15.3856 0l304.0128-248.896a27.7888 27.7888 0 0 1 35.456 17.5104 29.056 29.056 0 0 1 0 18.5856C757.8368 416.7808 458.9568 699.648 458.9568 699.648a42.752 42.752 0 0 1-38.2464 0c-18.8032-18.3808-144-153.1904-144-153.1904a36.3264 36.3264 0 0 1 32.256-39.936z" fill="#2c2c2c" p-id="5577"></path></svg>