<?xml version="1.0" standalone="no"?><!DOCTYPE svg PUBLIC "-//W3C//DTD SVG 1.1//EN" "http://www.w3.org/Graphics/SVG/1.1/DTD/svg11.dtd"><svg t="1708244604618" class="icon" viewBox="0 0 1582 1024" version="1.1" xmlns="http://www.w3.org/2000/svg" p-id="5228" xmlns:xlink="http://www.w3.org/1999/xlink" width="308.984375" height="200"><path d="M1257.462754 194.167043C998.573363-73.968397 564.009029-73.968397 305.119639 194.167043L0 508.532731l314.365688 314.365689c258.889391 268.13544 693.453725 268.13544 952.343116 0L1571.828442 508.532731l-314.365688-314.365688zM1183.494357 739.683973c-101.706546 101.706546-249.643341 166.428894-397.580136 166.428894S490.040632 841.390519 388.334086 739.683973L157.182844 508.532731l231.151242-221.905191C490.040632 184.920993 637.977427 120.198646 785.914221 120.198646s295.873589 55.476298 397.580136 166.428894l231.151241 221.905191L1183.494357 739.683973z" fill="#757575" p-id="5229"></path><path d="M785.914221 277.38149C656.469526 277.38149 554.76298 379.088036 554.76298 508.532731S656.469526 739.683973 785.914221 739.683973 1017.065463 637.977427 1017.065463 508.532731 915.358916 277.38149 785.914221 277.38149z m0 351.349887c-64.722348 0-110.952596-55.476298-110.952596-110.952596s55.476298-110.952596 110.952596-110.952596 110.952596 55.476298 110.952596 110.952596-46.230248 110.952596-110.952596 110.952596z" fill="#757575" p-id="5230"></path></svg>